<?xml version="1.0" encoding="UTF-8"?>
<svg width="1817px" height="1608px" viewBox="0 0 1817 1608" version="1.1" xmlns="http://www.w3.org/2000/svg" xmlns:xlink="http://www.w3.org/1999/xlink">
    <!-- Generator: Sketch 64 (93537) - https://sketch.com -->
    <title>lean</title>
    <desc>Created with Sketch.</desc>
    <defs>
        <polyline id="path-1" points="9.56666667 19.2447619 40.2483333 19.2447619 30.857381 0.24 0.175714286 0.24 9.56666667 19.2447619"></polyline>
        <linearGradient x1="-0.000243605359%" y1="49.9974944%" x2="100.009988%" y2="49.9974944%" id="linearGradient-3">
            <stop stop-color="#FFAD6F" offset="0%"></stop>
            <stop stop-color="#FFD96F" offset="100%"></stop>
        </linearGradient>
        <polyline id="path-4" points="10.09 19.2447619 17.58 19.2447619 7.96 0.24 0.47 0.24 10.09 19.2447619"></polyline>
        <linearGradient x1="-0.00116890707%" y1="49.9974944%" x2="100.006429%" y2="49.9974944%" id="linearGradient-6">
            <stop stop-color="#FFAD6F" offset="0%"></stop>
            <stop stop-color="#FFD96F" offset="100%"></stop>
        </linearGradient>
        <polyline id="path-7" points="4.35393939 10.441 127.77697 10.441 123.684848 0.465 0.261818182 0.465 4.35393939 10.441"></polyline>
        <linearGradient x1="0%" y1="50%" x2="100.001521%" y2="50%" id="linearGradient-9">
            <stop stop-color="#FFAD6F" offset="0%"></stop>
            <stop stop-color="#FFD96F" offset="100%"></stop>
        </linearGradient>
        <linearGradient x1="50%" y1="0%" x2="50%" y2="100%" id="linearGradient-10">
            <stop stop-color="#3275EB" offset="0%"></stop>
            <stop stop-color="#61ADF7" offset="100%"></stop>
        </linearGradient>
        <linearGradient x1="50%" y1="0%" x2="50%" y2="100%" id="linearGradient-11">
            <stop stop-color="#3275EB" offset="0%"></stop>
            <stop stop-color="#61ADF7" offset="100%"></stop>
        </linearGradient>
        <linearGradient x1="50%" y1="0%" x2="50%" y2="100%" id="linearGradient-12">
            <stop stop-color="#3275EB" offset="0%"></stop>
            <stop stop-color="#61ADF7" offset="100%"></stop>
        </linearGradient>
    </defs>
    <g id="Page-1" stroke="none" stroke-width="1" fill="none" fill-rule="evenodd">
        <g id="lean">
            <g id="lines" transform="translate(520.000000, 400.000000)">
                <polygon id="Fill-11" fill="#E0E0E0" points="0 114 173 114 173 97 0 97"></polygon>
                <polygon id="Fill-12" fill="#E0E0E0" points="221 249 347 249 347 232 221 232"></polygon>
                <polygon id="Fill-12" fill="#E0E0E0" points="503 587 633 587 633 570 503 570"></polygon>
                <polygon id="Fill-13" fill="#1487E3" points="367 249 451 249 451 232 367 232"></polygon>
                <polygon id="Fill-14" fill="#1487E3" points="537 786 621 786 621 769 537 769"></polygon>
                <polygon id="Fill-15" fill="#1487E3" points="1 585 85 585 85 568 1 568"></polygon>
                <polygon id="Fill-16" fill="#E0E0E0" points="466 249 667 249 667 232 466 232"></polygon>
                <polygon id="Fill-16" fill="#E0E0E0" points="621 451 780 451 780 434 621 434"></polygon>
                <polygon id="Fill-17" fill="#E0E0E0" points="1 517 131 517 131 500 1 500"></polygon>
                <polygon id="Fill-18" fill="#E0E0E0" points="349 651 479 651 479 634 349 634"></polygon>
                <polygon id="Fill-19" fill="#E0E0E0" points="182 651 261 651 261 634 182 634"></polygon>
                <polygon id="Fill-20" fill="#1487E3" points="1 651 157 651 157 634 1 634"></polygon>
                <polygon id="Fill-21" fill="#E0E0E0" points="2 719 89 719 89 702 2 702"></polygon>
                <polygon id="Fill-22" fill="#78C2FF" points="207 114 330 114 330 97 207 97"></polygon>
                <polygon id="Fill-23" fill="#1487E3" points="207 315 330 315 330 298 207 298"></polygon>
                <polygon id="Fill-24" fill="#E0E0E0" points="145 383 198 383 198 366 145 366"></polygon>
                <polygon id="Fill-25" fill="#78C2FF" points="94 451 212 451 212 434 94 434"></polygon>
                <polygon id="Fill-26" fill="#1487E3" points="230 451 393 451 393 434 230 434"></polygon>
                <polygon id="Fill-27" fill="#1487E3" points="2 383 125 383 125 366 2 366"></polygon>
                <polygon id="Fill-28" fill="#1487E3" points="2 451 74 451 74 434 2 434"></polygon>
                <polygon id="Fill-25" fill="#78C2FF" points="409 383 527 383 527 366 409 366"></polygon>
                <polygon id="Fill-25" fill="#78C2FF" points="657 587 775 587 775 570 657 570"></polygon>
                <polygon id="Fill-26" fill="#1487E3" points="545 383 708 383 708 366 545 366"></polygon>
                <polygon id="Fill-28" fill="#1487E3" points="317 383 389 383 389 366 317 366"></polygon>
                <polygon id="Fill-29" fill="#FF8761" points="223 383 292 383 292 366 223 366"></polygon>
                <polygon id="Fill-30" fill="#FF8761" points="3 786 72 786 72 769 3 769"></polygon>
                <polygon id="Fill-31" fill="#78C2FF" points="1 249 124 249 124 232 1 232"></polygon>
                <polygon id="Fill-32" fill="#78C2FF" points="110 585 233 585 233 568 110 568"></polygon>
                <polygon id="Fill-33" fill="#78C2FF" points="112 719 235 719 235 702 112 702"></polygon>
                <polygon id="Fill-34" fill="#78C2FF" points="332 719 455 719 455 702 332 702"></polygon>
                <polygon id="Fill-35" fill="#78C2FF" points="1 315 178 315 178 298 1 298"></polygon>
                <polygon id="Fill-36" fill="#78C2FF" points="386 786 509 786 509 769 386 769"></polygon>
                <polygon id="Fill-37" fill="#1487E3" points="363 114 520 114 520 97 363 97"></polygon>
                <polygon id="Fill-38" fill="#1487E3" points="100 786 256 786 256 769 100 769"></polygon>
                <polygon id="Fill-39" fill="#1487E3" points="647 786 803 786 803 769 647 769"></polygon>
                <polygon id="Fill-40" fill="#1487E3" points="623 651 779 651 779 634 623 634"></polygon>
                <polygon id="Fill-41" fill="#1487E3" points="580 315 736 315 736 298 580 298"></polygon>
                <polygon id="Fill-42" fill="#FF8761" points="286 651 320 651 320 634 286 634"></polygon>
                <polygon id="Fill-43" fill="#FF8761" points="637 114 793 114 793 97 637 97"></polygon>
                <polygon id="Fill-44" fill="#FF8761" points="458 315 551 315 551 298 458 298"></polygon>
                <polygon id="Fill-45" fill="#FF8761" points="386 586 479 586 479 569 386 569"></polygon>
                <polygon id="Fill-46" fill="#E0E0E0" points="549 114 607 114 607 97 549 97"></polygon>
                <polygon id="Fill-47" fill="#E0E0E0" points="363 315 421 315 421 298 363 298"></polygon>
                <polygon id="Fill-44" fill="#FF8761" points="508 451 601 451 601 434 508 434"></polygon>
                <polygon id="Fill-47" fill="#E0E0E0" points="413 451 471 451 471 434 413 434"></polygon>
                <polygon id="Fill-48" fill="#1487E3" points="0 182 90 182 90 165 0 165"></polygon>
                <polygon id="Fill-49" fill="#1487E3" points="240 518 311 518 311 501 240 501"></polygon>
                <polygon id="Fill-50" fill="#1487E3" points="112 182 142 182 142 165 112 165"></polygon>
                <polygon id="Fill-51" fill="#E0E0E0" points="477 719 717 719 717 702 477 702"></polygon>
                <polygon id="Fill-52" fill="#FF8761" points="162 182 192 182 192 165 162 165"></polygon>
                <polygon id="Fill-53" fill="#1487E3" points="607 182 686 182 686 165 607 165"></polygon>
                <polygon id="Fill-54" fill="#FF8761" points="685 249 764 249 764 232 685 232"></polygon>
                <polygon id="Fill-55" fill="#FF8761" points="510 651 589 651 589 634 510 634"></polygon>
                <polygon id="Fill-56" fill="#FF8761" points="281 786 360 786 360 769 281 769"></polygon>
                <polygon id="Fill-57" fill="#1487E3" points="420 182 587 182 587 165 420 165"></polygon>
                <polygon id="Fill-58" fill="#1487E3" points="265 586 362 586 362 569 265 569"></polygon>
                <polygon id="Fill-59" fill="#1487E3" points="257 719 306 719 306 702 257 702"></polygon>
                <polygon id="Fill-60" fill="#78C2FF" points="339 182 397 182 397 165 339 165"></polygon>
                <polygon id="Fill-53" fill="#1487E3" points="605 519 684 519 684 502 605 502"></polygon>
                <polygon id="Fill-57" fill="#1487E3" points="418 519 585 519 585 502 418 502"></polygon>
                <polygon id="Fill-60" fill="#78C2FF" points="337 519 395 519 395 502 337 502"></polygon>
                <polygon id="Fill-61" fill="#FF8761" points="144 249 202 249 202 232 144 232"></polygon>
                <polygon id="Fill-62" fill="#FF8761" points="156 518 214 518 214 501 156 501"></polygon>
                <polygon id="Fill-63" fill="#1487E3" points="216 182 316 182 316 165 216 165"></polygon>
                <g id="extra" transform="translate(508.000000, 0.000000)">
                    <g id="Group-67" transform="translate(115.000000, 14.000000)">
                        <mask id="mask-2" fill="white">
                            <use xlink:href="#path-1"></use>
                        </mask>
                        <g id="Clip-66"></g>
                        <polyline id="Fill-65" fill="url(#linearGradient-3)" mask="url(#mask-2)" points="9.56666667 19.2447619 40.2483333 19.2447619 30.857381 0.24 0.175714286 0.24 9.56666667 19.2447619"></polyline>
                    </g>
                    <g id="Group-70" transform="translate(101.000000, 14.000000)">
                        <mask id="mask-5" fill="white">
                            <use xlink:href="#path-4"></use>
                        </mask>
                        <g id="Clip-69"></g>
                        <polyline id="Fill-68" fill="url(#linearGradient-6)" mask="url(#mask-5)" points="10.09 19.2447619 17.58 19.2447619 7.96 0.24 0.47 0.24 10.09 19.2447619"></polyline>
                    </g>
                    <g id="Group-73">
                        <mask id="mask-8" fill="white">
                            <use xlink:href="#path-7"></use>
                        </mask>
                        <g id="Clip-72"></g>
                        <polyline id="Fill-71" fill="url(#linearGradient-9)" mask="url(#mask-8)" points="4.35393939 10.441 127.77697 10.441 123.684848 0.465 0.261818182 0.465 4.35393939 10.441"></polyline>
                    </g>
                </g>
            </g>
            <g id="Cycle" transform="translate(52.000000, 0.000000)" fill-rule="nonzero">
                <polygon id="Path" fill="url(#linearGradient-10)" points="1582.70069 1581 1582.70069 1517.08723 1238.03203 1517.08723 1468.37157 1318.62128 1582.70069 1318.62128 1582.70069 1254.70851 1737.38127 1419.53617"></polygon>
                <path d="M557.101245,1217.70638 C424.27771,1123.51915 340.212182,967.101064 340.212182,790.5 C340.212182,531.485106 528.518966,316.2 775.671619,272.470213 L681.518228,183.328723 L770.627688,72.3223404 C414.189847,121.097872 141.817535,425.524468 141.817535,792.181915 C141.817535,951.96383 193.938162,1098.29043 279.685002,1219.3883 L557.101245,1217.70638 C557.101245,1219.3883 557.101245,1217.70638 557.101245,1217.70638 Z" id="Path" fill="url(#linearGradient-11)"></path>
                <path d="M923.62695,70.6404255 L923.62695,0 L777.35293,166.509574 L923.62695,331.337234 L923.62695,274.152128 C1175.82353,311.154255 1372.53687,531.485106 1372.53687,793.86383 C1372.53687,1084.83511 1137.15339,1320.30319 846.286663,1320.30319 C819.385694,1320.30319 0.587447002,1320.30319 0.587447002,1320.30319 L0.587447002,1520.45106 L873.187632,1520.45106 L873.187632,1520.45106 C1258.20775,1508.67766 1570.93152,1189.11383 1570.93152,797.22766 C1570.93152,418.796809 1286.79003,111.006383 923.62695,70.6404255 Z" id="Path" fill="url(#linearGradient-12)"></path>
            </g>
            <g id="Bas" transform="translate(747.000000, 940.000000)">
                <path d="M273.389,596.198768 C273.389,596.198768 275.169,610.728768 277.529,617.128768 C279.889,623.538768 292.699,638.318768 287.289,652.528768 C281.419,667.928768 255.799,653.088768 245.349,648.388768 C234.899,643.678768 237.279,635.158768 236.169,624.718768 C235.049,614.268768 229.949,613.988768 231.829,606.638768 C233.709,599.298768 245.139,585.238768 245.139,585.238768 L273.389,596.198768" id="Fill-124" fill="#35527A"></path>
                <path d="M250.079,577.638768 C250.079,577.638768 243.519,586.818768 243.699,587.068768 C243.879,587.318768 271.789,604.308768 273.739,598.798768 C275.279,594.418768 275.929,588.078768 275.929,588.078768 L250.079,577.638768" id="Fill-125" fill="#EEA886"></path>
                <path d="M155.459,606.468768 C155.459,606.468768 146.949,613.928768 139.299,625.398768 C131.649,636.868768 111.356,637.478768 110.487,653.138768 C109.619,668.788768 138.079,669.278768 153.029,664.178768 C167.979,659.078768 170.239,643.788768 179.269,639.968768 C188.309,636.138768 192.999,633.048768 192.309,625.588768 C191.609,618.118768 186.609,605.998768 186.609,605.998768 C186.609,605.998768 180.999,607.798768 177.689,608.158768 C174.389,608.528768 163.279,608.658768 155.459,606.468768" id="Fill-126" fill="#35527A"></path>
                <path d="M257.899,182.278768 C257.899,182.278768 252.179,216.348768 247.559,238.848768 C245.689,247.968768 243.999,255.198768 242.949,257.468768 C241.629,260.328768 230.879,271.878768 217.719,285.418768 C194.629,309.188768 164.129,339.118768 164.129,339.118768 L152.199,316.488768 C152.199,316.488768 179.299,284.718768 197.659,263.528768 C206.169,253.718768 212.799,246.168768 214.009,245.088768 C217.849,241.648768 222.309,207.798768 228.569,179.908768 C234.839,152.018768 247.389,136.608768 247.389,136.608768 L257.899,182.278768" id="Fill-127" fill="#FFD670"></path>
                <path d="M217.719,285.418768 C194.629,309.188768 164.129,339.118768 164.129,339.118768 L152.199,316.488768 C152.199,316.488768 179.299,284.718768 197.659,263.528768 C203.289,266.288768 213.629,272.868768 217.719,285.418768" id="Fill-128" fill="#EEA886"></path>
                <path d="M156.799,596.038768 L155.459,606.468768 C155.459,606.468768 170.279,611.708768 186.609,605.998768 L186.939,596.728768 L156.799,596.038768" id="Fill-129" fill="#EEA886"></path>
                <path d="M367.169,334.518768 C368.019,337.548768 210.209,334.518768 210.209,334.518768 C210.209,334.518768 253.859,302.738768 256.689,294.248768 C259.519,285.758768 245.579,234.828768 243.759,218.258768 C242.299,204.998768 238.659,145.668768 247.389,136.608768 C256.529,127.128768 289.429,117.208768 289.429,117.208768 L337.399,118.988768 C337.399,118.988768 345.319,120.638768 350.969,123.268768 C356.629,125.898768 388.999,137.418768 394.249,153.588768 C399.509,169.758768 361.959,221.748768 361.959,221.748768 C361.959,221.748768 361.889,224.078768 361.769,227.908768 C361.629,233.018768 361.409,240.778768 361.219,249.188768 C360.969,260.088768 360.749,272.088768 360.749,280.858768 C360.749,301.468768 366.319,331.488768 367.169,334.518768" id="Fill-130" fill="#FFD670"></path>
                <path d="M367.169,334.518768 C367.169,334.518768 388.639,366.038768 388.940749,387.568768 C389.239,409.088768 350.849,481.178768 345.039,491.488768 C327.569,522.498768 279.659,589.368768 279.659,589.368768 C279.659,589.368768 271.399,589.158768 245.639,579.158768 C245.639,579.158768 277.509,490.818768 281.549,481.648768 C298.679,442.758768 308.239,415.168768 302.479,408.498768 C296.719,401.828768 281.019,395.148768 276.469,391.208768 C271.919,387.268768 192.709,406.168768 184.409,408.328768 C162.909,413.898768 172.709,451.298768 177.459,468.068768 C185.419,496.118768 192.369,597.418768 192.369,597.418768 C192.369,597.418768 177.059,603.938768 151.419,598.428768 C151.419,598.428768 101.066,415.518768 99.45,397.328768 C97.833,379.138768 97.039,349.148768 221.129,326.348768 L367.169,334.518768" id="Fill-131" fill="#293F5E"></path>
                <path d="M302.589,12.9887678 C302.589,12.9887678 260.959,3.59876784 270.469,55.9987678 C279.979,108.398768 289.989,112.518768 315.109,101.668768 C340.229,90.8287678 337.979,57.2587678 339.249,40.7887678 C340.509,24.3287678 315.879,13.5587678 302.589,12.9887678" id="Fill-132" fill="#EEA886"></path>
                <path d="M291.579,130.658768 C291.579,130.658768 310.019,150.208768 339.159,132.438768 C339.159,132.438768 332.639,90.0687678 336.069,69.4287678 C339.499,48.7987678 298.049,101.408768 298.049,101.408768 C298.599,101.698768 298.959,103.658768 299.039,106.468768 C299.109,108.838768 298.979,111.808768 298.599,114.858768 C297.749,121.718768 295.609,128.968768 291.579,130.658768" id="Fill-133" fill="#EEA886"></path>
                <path d="M337.219,67.6787678 C337.219,67.6787678 336.149,51.1687678 330.119,50.6587678 C324.079,50.1387678 323.159,56.7887678 323.159,56.7887678 L317.069,57.9387678 C317.069,57.9387678 318.989,43.4687678 312.969,40.9387678 C306.949,38.4087678 273.959,48.9087678 269.119,44.6587678 C264.289,40.4087678 266.559,11.0587678 275.309,7.03876784 C284.049,3.01876784 308.189,-5.98123216 325.879,5.98876784 C325.879,5.98876784 339.659,4.41876784 341.709,15.5487678 C343.749,26.6787678 340.969,59.4087678 337.219,67.6787678" id="Fill-134" fill="#3A3F47"></path>
                <path d="M298.599,114.858768 C328.669,105.588768 330.929,87.4887678 330.969,87.2087678 C321.069,104.218768 299.039,106.468768 299.039,106.468768 C299.109,108.838768 298.979,111.808768 298.599,114.858768" id="Fill-135" fill="#A77860"></path>
                <path d="M351.469,123.498768 C351.469,123.498768 329.449,167.328768 293.879,164.498768 C258.309,161.668768 287.819,117.608768 289.429,117.208768 C291.209,116.758768 325.909,108.108768 351.469,123.498768" id="Fill-136" fill="#EEA886"></path>
                <path d="M192.149,332.298768 C192.149,332.298768 301.139,345.728768 367.169,334.518768 L240.999,318.748768 C240.999,318.748768 240.259,321.968768 192.149,332.298768" id="Fill-137" fill="#FFD670"></path>
                <path d="M273.669,313.788768 L265.549,317.898768 C265.549,317.898768 267.399,330.798768 271.849,334.708768 L280.959,332.378768 C280.959,332.378768 279.059,318.238768 273.669,313.788768" id="Fill-138" fill="#EEA886"></path>
                <path d="M399.779,287.378768 C398.159,289.258768 376.729,297.878768 352.529,307.198768 C319.459,319.938768 282.159,331.988768 282.159,331.988768 L273.669,313.788768 C273.669,313.788768 312.729,292.568768 339.129,277.678768 C351.589,270.648768 361.229,265.028768 362.599,263.728768 C366.839,259.688768 367.939,253.208768 364.819,241.908768 C361.699,230.598768 354.509,178.648768 353.699,172.578768 C352.899,166.518768 355.719,150.348768 370.879,149.538768 C386.039,148.728768 393.759,153.008768 393.759,153.008768 C393.759,153.008768 397.559,154.598768 400.389,191.378768 C403.219,228.158768 403.619,282.928768 399.779,287.378768" id="Fill-139" fill="#FFD670"></path>
                <path d="M361.769,227.908768 L361.769,227.908768 C361.629,233.018768 361.409,240.778768 361.219,249.188768 C346.419,212.928768 354.969,183.988768 355.119,183.498768 C353.519,193.338768 361.659,227.428768 361.769,227.908768" id="Fill-140" fill="#8F773F"></path>
                <path d="M247.559,238.848768 L247.559,238.848768 C245.689,247.968768 243.999,255.198768 242.949,257.468768 C237.899,233.008768 242.439,201.698768 242.439,201.698768 C243.129,216.658768 247.559,238.848768 247.559,238.848768" id="Fill-141" fill="#8F773F"></path>
                <path d="M352.529,307.198768 L352.529,307.198768 C319.459,319.938768 280.959,332.378768 280.959,332.378768 L273.669,313.788768 C273.669,313.788768 312.729,292.568768 339.129,277.678768 C339.129,277.678768 348.729,282.358768 352.529,307.198768" id="Fill-142" fill="#EEA886"></path>
                <polyline id="Fill-143" fill="#444C94" points="271.319 333.458768 116.409 331.178768 194.619 370.898768 271.319 333.458768"></polyline>
                <polyline id="Fill-144" fill="#303669" points="194.619 370.898768 271.319 341.188768 271.319 333.458768 188.559 363.318768 194.619 370.898768"></polyline>
                <path d="M267.299,318.178768 C267.299,318.178768 257.629,316.678768 250.939,315.118768 C245.759,313.918768 232.889,315.578768 229.619,318.898768 C226.339,322.218768 215.909,345.358768 213.939,346.778768 C211.969,348.188768 214.949,351.458768 218.419,349.808768 C218.419,349.808768 221.589,359.938768 229.439,356.148768 C237.289,352.358768 242.609,344.078768 246.719,342.618768 C250.829,341.168768 274.749,333.808768 274.749,333.808768 C274.749,333.808768 273.469,315.718768 267.299,318.178768" id="Fill-145" fill="#EEA886"></path>
                <path d="M231.979,317.378768 C231.979,317.378768 225.759,320.378768 224.139,321.718768 C222.519,323.058768 215.939,327.978768 214.349,329.138768 C212.749,330.298768 216.749,333.588768 228.509,328.498768 C240.269,323.408768 231.979,317.378768 231.979,317.378768" id="Fill-146" fill="#EEA886"></path>
                <polyline id="Fill-147" fill="#303669" points="194.619 370.898768 148.539 245.088768 0 247.508768 43.914 363.448768 194.619 370.898768"></polyline>
                <path d="M101.014,300.738768 C105.547,309.808768 104.178,319.668768 97.956,322.788768 C91.734,325.898768 83.016,321.078768 78.483,312.008768 C73.951,302.948768 75.319,293.078768 81.541,289.968768 C87.763,286.858768 96.481,291.678768 101.014,300.738768" id="Fill-148" fill="#518AFA"></path>
                <path d="M323.289,49.7887678 C323.829,45.1687678 332.969,43.4787678 333.709,50.4087678 C334.439,57.3387678 329.559,69.4987678 326.089,68.3087678 C322.619,67.1087678 322.529,56.1687678 323.289,49.7887678" id="Fill-149" fill="#EEA886"></path>
            </g>
            <g id="Customer" transform="translate(377.000000, 840.000000)">
                <path d="M41.1363225,160.426903 C41.1363225,160.426903 35.7253225,236.306903 50.5513225,245.386903 C59.8383225,251.076903 96.8693225,270.266903 95.7713225,273.856903 C94.6723225,277.456903 74.8623225,305.876903 74.8623225,305.876903 C74.8623225,305.876903 3.73232252,259.036903 1.43932252,244.276903 C-0.800677482,229.856903 4.94032252,133.176903 14.7163225,128.726903 C22.0393225,125.386903 25.9053225,128.146903 35.1333225,134.996903 C48.0843225,144.616903 41.1363225,160.426903 41.1363225,160.426903" id="Fill-175" fill="#323657"></path>
                <path d="M170.771323,182.096903 L177.039323,179.776903 C177.039323,179.776903 169.221323,161.416903 165.809323,161.866903 C161.877323,162.386903 156.971323,163.676903 156.971323,163.676903 L170.771323,182.096903" id="Fill-176" fill="#EAD8CF"></path>
                <path d="M172.202323,185.256903 C171.400323,184.666903 158.876323,160.636903 158.876323,160.636903 L132.116323,164.266903 L146.576323,192.726903 L172.202323,185.256903" id="Fill-177" fill="#DA9B5B"></path>
                <path d="M32.8663225,712.606903 C32.8663225,712.606903 30.6543225,727.956903 30.3783225,730.266903 C30.1023225,732.576903 5.77332252,728.906903 5.77332252,728.906903 L3.80332252,710.626903 C3.80332252,710.626903 29.8253225,710.436903 32.8663225,712.606903" id="Fill-178" fill="#424773"></path>
                <path d="M30.6373225,728.316903 C30.6373225,728.316903 38.3453225,737.566903 45.8003225,741.596903 C53.2563225,745.626903 64.9723225,747.226903 69.3803225,751.396903 C72.5623225,754.416903 80.9713225,767.386903 50.0073225,767.126903 C19.0433225,766.856903 4.11432252,768.956903 0.796322518,763.986903 C-2.52067748,759.006903 5.59732252,727.276903 5.59732252,727.276903 C5.59732252,727.276903 12.9303225,729.916903 30.6373225,728.316903" id="Fill-179" fill="#292C47"></path>
                <path d="M154.625323,712.606903 C154.625323,712.606903 152.413323,727.956903 152.136323,730.266903 C151.860323,732.576903 127.531323,728.906903 127.531323,728.906903 L125.561323,710.626903 C125.561323,710.626903 151.583323,710.436903 154.625323,712.606903" id="Fill-180" fill="#424773"></path>
                <path d="M152.395323,728.316903 C152.395323,728.316903 160.104323,737.566903 167.559323,741.596903 C175.014323,745.626903 202.449323,748.946903 206.857323,753.116903 C210.040323,756.126903 215.333323,768.256903 171.765323,767.126903 C140.812323,766.316903 125.872323,768.956903 122.555323,763.986903 C119.237323,759.006903 127.355323,727.276903 127.355323,727.276903 C127.355323,727.276903 134.264323,730.096903 152.395323,728.316903" id="Fill-181" fill="#292C47"></path>
                <path d="M41.5943225,318.116903 C41.5943225,318.116903 18.7343225,354.436903 20.4393225,387.266903 C22.1453225,420.096903 18.4023225,455.166903 14.9683225,489.456903 C11.1403225,527.696903 0.711322518,607.256903 0.143322518,627.716903 C-0.425677482,648.166903 0.889322518,725.116903 0.889322518,725.116903 L40.5433225,724.826903 C40.5433225,724.826903 54.6163225,569.356903 61.4383225,553.206903 C68.2593225,537.066903 96.2603225,420.266903 97.3973225,407.346903 C98.5343225,394.436903 41.5943225,318.116903 41.5943225,318.116903" id="Fill-182" fill="#292C47"></path>
                <path d="M161.933323,323.036903 C161.933323,323.036903 170.962323,412.286903 173.236323,432.376903 C175.510323,452.476903 173.953323,539.536903 175.089323,552.096903 C176.227323,564.656903 167.491323,697.486903 165.337323,722.786903 L121.758323,722.506903 C121.758323,722.506903 118.751323,615.056903 118.751323,562.846903 C118.751323,510.646903 105.355323,449.866903 90.0073225,415.426903 C74.6583225,380.976903 39.5243225,380.166903 30.0903225,316.256903 C30.0903225,316.256903 149.158323,302.766903 161.933323,323.036903" id="Fill-183" fill="#292C47"></path>
                <path d="M65.7443225,11.8869029 C65.7443225,11.8869029 92.9813225,-6.30309708 112.108323,13.1869029 C131.236323,32.6769029 140.635323,78.4969029 126.899323,87.6469029 C113.164323,96.7869029 89.8613225,99.1869029 78.8023225,86.7869029 C67.7433225,74.3769029 55.9383225,55.4469029 53.0333225,41.6269029 C50.1293225,27.7969029 58.8373225,17.7069029 65.7443225,11.8869029" id="Fill-184" fill="#EEA886"></path>
                <path d="M117.639323,90.7369029 C117.639323,90.7369029 117.282323,109.876903 119.393323,113.956903 C121.503323,118.036903 79.6413225,118.146903 79.6413225,118.146903 C79.6413225,118.146903 76.2423225,95.9469029 69.7993225,77.1869029 C63.3563225,58.4369029 117.639323,90.7369029 117.639323,90.7369029" id="Fill-185" fill="#EEA886"></path>
                <path d="M70.8473225,76.8869029 C70.8473225,76.8869029 74.7523225,80.8569029 85.8083225,76.3569029 C96.8633225,71.8469029 107.269323,53.2769029 111.666323,50.4669029 C116.064323,47.6669029 115.446323,44.8369029 115.446323,44.8369029 L119.480323,48.5169029 L124.647323,47.6369029 C124.647323,47.6369029 116.784323,35.0669029 122.476323,27.8469029 C128.168323,20.6269029 104.785323,-14.6630971 71.0023225,6.87690292 C71.0023225,6.87690292 44.5633225,21.3369029 49.3803225,37.1769029 C54.1983225,53.0169029 62.6323225,70.3669029 70.8473225,76.8869029" id="Fill-186" fill="#FCCCA2"></path>
                <path d="M121.877323,113.466903 C121.877323,113.466903 121.745323,105.666903 118.211323,104.916903 C114.677323,104.176903 79.2003225,100.756903 74.8623225,102.466903 L74.8623225,111.546903 C74.8623225,111.546903 83.2203225,116.696903 121.877323,113.466903" id="Fill-187" fill="#E2D2CA"></path>
                <path d="M113.308323,39.1669029 C112.028323,36.6269029 103.353323,30.5369029 102.671323,39.4069029 C101.989323,48.2769029 111.200323,57.8269029 114.654323,56.0069029 C118.109323,54.1869029 116.551323,45.6269029 113.308323,39.1669029" id="Fill-188" fill="#EEA886"></path>
                <path d="M262.676323,205.586903 C262.660323,205.586903 262.642323,205.576903 262.618323,205.586903 C262.861323,205.696903 262.896323,205.706903 262.676323,205.586903" id="Fill-189" fill="#323657"></path>
                <path d="M173.695323,124.266903 C148.450323,119.836903 121.877323,113.466903 121.877323,113.466903 L74.8613225,111.546903 C74.8613225,111.546903 31.7103225,121.046903 14.7163225,128.726903 C13.1043225,129.446903 13.0973225,167.216903 8.67332252,177.126903 L22.7633225,206.846903 C22.7633225,206.846903 30.9023225,265.726903 32.5903225,291.916903 C33.3663225,303.936903 15.8053225,404.636903 15.8053225,404.636903 C15.8053225,404.636903 34.6223225,410.176903 66.7103225,413.716903 C98.7993225,417.246903 178.974323,412.436903 179.479323,408.646903 C179.986323,404.856903 163.952323,267.526903 163.242323,260.406903 C162.153323,249.496903 166.395323,199.056903 166.395323,199.056903 C172.440323,207.176903 201.186323,242.486903 217.251323,259.936903 C226.703323,270.196903 261.455323,288.026903 269.513323,291.626903 C286.933323,299.406903 314.841323,317.276903 315.865323,315.406903 C316.682323,314.286903 335.421323,282.596903 333.225323,281.856903 C331.303323,281.216903 272.925323,245.516903 256.262323,236.676903 C250.166323,233.446903 226.425323,192.726903 226.425323,192.726903 C226.425323,192.726903 187.622323,130.526903 173.695323,124.266903" id="Fill-190" fill="#323657"></path>
                <path d="M57.8703225,16.5769029 C57.8703225,16.5769029 18.9133225,27.0269029 69.2693225,75.3769029 L57.8703225,16.5769029" id="Fill-191" fill="#FCCCA2"></path>
                <path d="M355.394323,322.456903 C355.394323,322.456903 351.965323,322.536903 350.448323,321.846903 C350.448323,321.846903 347.784323,320.376903 345.826323,319.436903 C345.204323,319.146903 344.656323,318.896903 344.285323,318.776903 C342.736323,318.276903 339.188323,317.646903 335.807323,315.396903 C332.429323,313.156903 321.296323,304.016903 321.296323,304.016903 L327.400323,293.146903 L329.861323,282.616903 C329.861323,282.616903 354.486323,283.466903 357.877323,285.186903 C358.208323,285.356903 358.528323,285.536903 358.814323,285.736903 C361.544323,287.476903 362.842323,289.916903 364.171323,290.996903 C364.656323,291.386903 369.214323,295.676903 369.096323,297.546903 C368.935323,300.136903 367.773323,301.866903 366.230323,302.746903 C366.230323,302.746903 365.691323,307.806903 363.252323,310.206903 C363.252323,310.206903 362.905323,314.886903 359.021323,317.006903 C359.021323,317.006903 358.136323,321.716903 355.394323,322.456903" id="Fill-192" fill="#EFAA88"></path>
            </g>
            <g id="pc" transform="translate(1306.000000, 99.000000)">
                <polygon id="Fill-89" fill="#609AE8" points="290 276 326 276 326 166 290 166"></polygon>
                <path d="M448.183811,219 L168.816189,219 C160.078981,219 153,211.930925 153,203.210496 L153,15.7895044 C153,7.07004292 160.078981,0 168.816189,0 L448.183811,0 C456.921019,0 464,7.07004292 464,15.7895044 L464,203.210496 C464,211.930925 456.921019,219 448.183811,219" id="Fill-90" fill="#9CC7FF"></path>
                <polygon id="Fill-91" fill="#FFFFFF" points="165 183 452 183 452 11 165 11"></polygon>
                <polygon id="Fill-92" fill="#9CC7FF" points="227 280 389 280 389 272 227 272"></polygon>
                <polygon id="Fill-93" fill="#D7D7E6" points="344 170 436 170 436 64 344 64"></polygon>
                <polygon id="Fill-94" fill="#D7D7E6" points="235 77 329 77 329 64 235 64"></polygon>
                <polygon id="Fill-95" fill="#D7D7E6" points="235 104 329 104 329 91 235 91"></polygon>
                <polygon id="Fill-96" fill="#D7D7E6" points="235 171 329 171 329 116 235 116"></polygon>
                <polygon id="Fill-97" fill="#D7D7E6" points="181 171 222 171 222 61 181 61"></polygon>
                <polygon id="Fill-98" fill="#D7D7E6" points="182 51 437 51 437 25 182 25"></polygon>
                <polyline id="Fill-81" fill="#FF8761" points="3.57926007 402 102.915852 302.095515 511 302.095515 511 297 100.810975 297 0 398.39714 3.57926007 402"></polyline>
            </g>
            <g id="tablet" transform="translate(458.000000, 77.000000)">
                <path d="M47.1451154,224 L174.855855,224 C183.220213,224 190,217.200002 190,208.812883 L190,15.18809 C190,6.79999826 183.220213,0 174.855855,0 L47.1451154,0 C38.7807577,0 32,6.79999826 32,15.18809 L32,208.812883 C32,217.200002 38.7807577,224 47.1451154,224" id="Fill-99" fill="#9CC7FF"></path>
                <polygon id="Fill-100" fill="#FFFFFF" points="41 194 181 194 181 11 41 11"></polygon>
                <polygon id="Fill-101" fill="#D7D7E6" points="50 47 173 47 173 23 50 23"></polygon>
                <polygon id="Fill-102" fill="#D7D7E6" points="123 178 173 178 173 57 123 57"></polygon>
                <polygon id="Fill-103" fill="#D7D7E6" points="51 71 113 71 113 57 51 57"></polygon>
                <polygon id="Fill-104" fill="#D7D7E6" points="51 95 113 95 113 81 51 81"></polygon>
                <polygon id="Fill-105" fill="#D7D7E6" points="51 119 113 119 113 105 51 105"></polygon>
                <polygon id="Fill-106" fill="#D7D7E6" points="51 177 113 177 113 129 51 129"></polygon>
                <polygon id="Fill-85" fill="#78C2FF" points="377 424 225.595199 248 0 248 0 253.0428 223.493568 253.0428 370 429"></polygon>
            </g>
            <g id="laptop" transform="translate(0.000000, 457.000000)">
                <path d="M57,167 L303,167 L303,11.0807524 C303,4.96095246 298.03697,0 291.916771,0 L68.0832289,0 C61.9620612,0 57,4.96095246 57,11.0807524 L57,167" id="Fill-107" fill="#609AE8"></path>
                <polygon id="Fill-108" fill="#FFFFFF" points="64 157 296 157 296 8 64 8"></polygon>
                <path d="M44,166 L315,166 L315,168.745163 C315,174.408987 310.644565,179 305.272569,179 L53.7284049,179 C48.3554354,179 44,174.408987 44,168.745163 L44,166" id="Fill-109" fill="#9CC7FF"></path>
                <polygon id="Fill-110" fill="#D7D7E6" points="73 40 286 40 286 19 73 19"></polygon>
                <polygon id="Fill-111" fill="#D7D7E6" points="214 146 287 146 287 51 214 51"></polygon>
                <polygon id="Fill-112" fill="#D7D7E6" points="131 146 204 146 204 51 131 51"></polygon>
                <polygon id="Fill-113" fill="#D7D7E6" points="73 64 117 64 117 50 73 50"></polygon>
                <polygon id="Fill-114" fill="#D7D7E6" points="73 85 117 85 117 71 73 71"></polygon>
                <polygon id="Fill-115" fill="#D7D7E6" points="73 147 117 147 117 93 73 93"></polygon>
                <polyline id="Fill-84" fill="#1487E3" points="545.4183 390 549 386.406759 359.204825 196 0 196 0 201.081911 357.105074 201.081911 545.4183 390"></polyline>
            </g>
        </g>
    </g>
</svg>