<?xml version="1.0" encoding="utf-8"?>
<!-- Generator: Adobe Illustrator 16.0.0, SVG Export Plug-In . SVG Version: 6.00 Build 0)  -->
<!DOCTYPE svg PUBLIC "-//W3C//DTD SVG 1.1//EN" "http://www.w3.org/Graphics/SVG/1.1/DTD/svg11.dtd">
<svg version="1.1" id="Layer_1" xmlns="http://www.w3.org/2000/svg" xmlns:xlink="http://www.w3.org/1999/xlink" x="0px" y="0px"
	 width="679px" height="187.093px" viewBox="0 0 679 187.093" enable-background="new 0 0 679 187.093" xml:space="preserve">
<g>
	<path fill="#112770" d="M213.56,124.24h-13.139l-17.071-19.582h-10.628v19.582h-11.046V65.579c9.289,0,18.578,0.083,27.867,0.083
		c13.807,0.083,21.088,9.289,21.088,19.415c0,8.034-3.682,16.151-14.812,18.41l17.741,20.001V124.24z M172.722,75.955v18.746h16.82
		c7.029,0,10.042-4.687,10.042-9.374c0-4.686-3.096-9.372-10.042-9.372H172.722z"/>
	<path fill="#112770" d="M262.507,103.653c0,11.884-8.117,21.509-21.506,21.509c-13.39,0-21.423-9.625-21.423-21.509
		c0-11.798,8.201-21.505,21.339-21.505C254.056,82.147,262.507,91.854,262.507,103.653z M229.787,103.653
		c0,6.276,3.766,12.135,11.214,12.135c7.447,0,11.213-5.858,11.213-12.135c0-6.191-4.351-12.217-11.213-12.217
		C233.637,91.436,229.787,97.461,229.787,103.653z"/>
	<path fill="#112770" d="M306.435,82.984h9.792v41.255h-9.623l-0.503-6.025c-2.343,4.854-8.787,7.198-13.389,7.281
		c-12.218,0.082-21.255-7.448-21.255-21.925c0-14.227,9.457-21.675,21.506-21.59c5.523,0,10.795,2.593,13.138,6.694L306.435,82.984z
		 M281.666,103.571c0,7.866,5.439,12.551,12.217,12.551c16.067,0,16.067-25.021,0-25.021
		C287.105,91.101,281.666,95.704,281.666,103.571z"/>
	<path fill="#112770" d="M356.472,124.24v-22.091c0-5.44-2.845-10.378-8.452-10.378c-5.523,0-8.787,4.938-8.787,10.378v22.091
		h-10.209V82.901h9.456l0.753,5.021c2.176-4.185,6.946-5.691,10.879-5.691c4.938,0,9.875,2.008,12.218,7.699
		c3.682-5.857,8.452-7.531,13.808-7.531c11.715,0,17.489,7.196,17.489,19.581v22.26h-10.209v-22.26
		c0-5.439-2.259-10.042-7.782-10.042c-5.523,0-8.955,4.77-8.955,10.21v22.091H356.472z"/>
	<path fill="#112770" d="M416.884,107.252c0.669,5.104,5.104,8.787,12.301,8.787c3.765,0,8.703-1.422,11.046-3.852l6.527,6.444
		c-4.352,4.519-11.464,6.694-17.741,6.694c-14.226,0-22.678-8.785-22.678-22.008c0-12.553,8.535-21.59,21.924-21.59
		c13.808,0,22.427,8.536,20.837,25.523H416.884z M439.311,98.801c-0.669-5.356-4.854-8.035-10.711-8.035
		c-5.523,0-10.042,2.679-11.548,8.035H439.311z"/>
	<path fill="#112770" d="M470.604,82.984l0.753,4.77c3.18-5.105,7.448-5.858,11.632-5.858c4.268,0,8.369,1.674,10.628,3.934
		l-4.603,8.871c-2.092-1.758-4.017-2.679-7.365-2.679c-5.355,0-10.292,2.845-10.292,10.46v21.758h-10.209V82.984H470.604z"/>
	<path fill="#FF9933" d="M541.646,76.958c-4.268-6.861-11.129-7.865-17.74-7.949c-6.862,0-17.74,2.51-17.74,11.883
		c0,7.448,8.034,9.205,17.908,11.046c11.297,2.175,23.013,4.184,23.013,16.82c-0.084,13.222-13.39,16.403-23.181,16.403
		c-9.122,0-19.498-3.767-24.017-12.723l4.017-2.007c3.598,7.111,12.803,10.627,20,10.627c7.197,0,18.661-2.007,18.661-12.385
		c0.084-8.786-9.623-10.712-19.247-12.552c-10.711-2.092-21.673-4.268-21.673-15.063c-0.251-12.385,12.636-16.234,22.259-16.234
		c8.369,0,15.649,1.339,21.423,9.958L541.646,76.958z"/>
	<path fill="#FF9933" d="M559.799,103.653c0-13.137,9.373-21.505,21.005-21.505c11.631,0,21.004,8.368,21.004,21.505
		c0,13.14-9.373,21.172-21.004,21.172C569.172,124.825,559.799,116.792,559.799,103.653z M597.791,103.653
		c0-10.71-7.615-17.656-16.987-17.656c-9.373,0-16.988,6.945-16.988,17.656c0,10.713,7.615,17.155,16.988,17.155
		C590.176,120.808,597.791,114.366,597.791,103.653z"/>
	<path fill="#FF9933" d="M619.71,124.24V86.833h-8.452v-3.598h8.452v-3.682c0-8.201,3.264-14.143,12.385-14.143
		c3.096,0,5.858,1.088,8.201,2.846l-2.009,3.013c-2.26-1.339-3.849-2.092-6.36-2.092c-5.188,0-8.201,3.179-8.201,10.376v3.682h13.64
		v3.598h-13.64v37.406H619.71z"/>
	<path fill="#FF9933" d="M660.628,70.432v12.469h14.058v3.431h-14.058v25.188c0,5.607,1.171,9.539,7.615,9.539
		c2.008,0,4.268-0.668,6.359-1.674l1.423,3.349c-2.594,1.253-5.188,2.091-7.782,2.091c-8.787,0-11.632-5.188-11.632-13.305V86.332
		h-8.787v-3.431h8.787V70.85L660.628,70.432z"/>
	<polygon fill="#0C1E51" points="113.46,122.494 74.674,83.707 68.386,89.995 68.386,104.41 106.827,142.852 	"/>
	<path fill="#FF9933" d="M137.79,113.296l-64.481-64.48v33.857l17.615,17.616l14.149,14.147l18.038,18.038l14.68-14.681
		C139.032,116.553,139.032,114.538,137.79,113.296z"/>
	<path fill="#112770" d="M101.29,71.448c0-18.172-14.731-32.903-32.903-32.903v0.133H34.46v65.674h33.926l0,0
		C86.559,104.352,101.29,89.621,101.29,71.448z"/>
	<path fill="#FF9933" d="M18.586,54.618L3.906,69.298c-1.243,1.242-1.243,3.256,0,4.498l64.48,64.481v-33.86L36.624,72.655
		L18.586,54.618z"/>
	<path fill="#DB771D" d="M53.045,20.16L18.586,54.618l18.038,18.038c-0.197-0.196-0.307-0.437-0.377-0.687
		c-0.023-0.202-0.025-0.409-0.045-0.611c0.042-0.334,0.166-0.661,0.422-0.917l31.763-31.762V4.818L53.045,20.16z"/>
	<path fill="#DB771D" d="M105.072,114.437c0.197,0.197,0.306,0.438,0.377,0.687c0.056,0.2,0.07,0.405,0.044,0.61
		c-0.041,0.336-0.166,0.661-0.421,0.918l-31.763,31.764v33.859l15.341-15.341l34.459-34.459L105.072,114.437z"/>
</g>
</svg>
