<?xml version="1.0" encoding="UTF-8"?>
<svg width="515px" height="62px" viewBox="0 0 515 62" version="1.1" xmlns="http://www.w3.org/2000/svg" xmlns:xlink="http://www.w3.org/1999/xlink">
    <!-- Generator: Sketch 52.5 (67469) - http://www.bohemiancoding.com/sketch -->
    <title>EPS-01</title>
    <desc>Created with Sketch.</desc>
    <g id="Page-1" stroke="none" stroke-width="1" fill="none" fill-rule="evenodd">
        <g id="EPS-01">
            <path d="M52.56,60.24 L39.421,60.24 L22.35,40.658 L11.722,40.658 L11.722,60.24 L0.676,60.24 L0.676,1.579 C9.965,1.579 19.254,1.662 28.543,1.662 C42.35,1.745 49.631,10.951 49.631,21.077 C49.631,29.111 45.949,37.228 34.819,39.487 L52.56,59.488 L52.56,60.24 Z M11.722,11.955 L11.722,30.701 L28.542,30.701 C35.571,30.701 38.584,26.014 38.584,21.327 C38.584,16.641 35.488,11.955 28.542,11.955 L11.722,11.955 Z" id="Shape" fill="#112770" fill-rule="nonzero"></path>
            <path d="M101.507,39.653 C101.507,51.537 93.39,61.162 80.001,61.162 C66.611,61.162 58.578,51.537 58.578,39.653 C58.578,27.855 66.779,18.148 79.917,18.148 C93.056,18.147 101.507,27.854 101.507,39.653 Z M68.787,39.653 C68.787,45.929 72.553,51.788 80.001,51.788 C87.448,51.788 91.214,45.93 91.214,39.653 C91.214,33.462 86.863,27.436 80.001,27.436 C72.637,27.436 68.787,33.461 68.787,39.653 Z" id="Shape" fill="#112770" fill-rule="nonzero"></path>
            <path d="M145.435,18.984 L155.227,18.984 L155.227,60.239 L145.604,60.239 L145.101,54.214 C142.758,59.068 136.314,61.412 131.712,61.495 C119.494,61.577 110.457,54.047 110.457,39.57 C110.457,25.343 119.914,17.895 131.963,17.98 C137.486,17.98 142.758,20.573 145.101,24.674 L145.435,18.984 Z M120.666,39.571 C120.666,47.437 126.105,52.122 132.883,52.122 C148.95,52.122 148.95,27.101 132.883,27.101 C126.105,27.101 120.666,31.704 120.666,39.571 Z" id="Shape" fill="#112770" fill-rule="nonzero"></path>
            <path d="M195.472,60.24 L195.472,38.149 C195.472,32.709 192.627,27.771 187.02,27.771 C181.497,27.771 178.233,32.709 178.233,38.149 L178.233,60.24 L168.024,60.24 L168.024,18.901 L177.48,18.901 L178.233,23.922 C180.409,19.737 185.179,18.231 189.112,18.231 C194.05,18.231 198.987,20.239 201.33,25.93 C205.012,20.073 209.782,18.399 215.138,18.399 C226.853,18.399 232.627,25.595 232.627,37.98 L232.627,60.24 L222.418,60.24 L222.418,37.98 C222.418,32.541 220.159,27.938 214.636,27.938 C209.113,27.938 205.681,32.708 205.681,38.148 L205.681,60.239 L195.472,60.239 L195.472,60.24 Z" id="Path" fill="#112770"></path>
            <path d="M255.884,43.252 C256.553,48.356 260.988,52.039 268.185,52.039 C271.95,52.039 276.888,50.617 279.231,48.187 L285.758,54.631 C281.406,59.15 274.294,61.325 268.017,61.325 C253.791,61.325 245.339,52.54 245.339,39.317 C245.339,26.764 253.874,17.727 267.263,17.727 C281.071,17.727 289.69,26.263 288.1,43.25 L255.884,43.25 L255.884,43.252 Z M278.311,34.801 C277.642,29.445 273.457,26.766 267.6,26.766 C262.077,26.766 257.558,29.445 256.052,34.801 L278.311,34.801 Z" id="Shape" fill="#112770" fill-rule="nonzero"></path>
            <path d="M309.604,18.984 L310.357,23.754 C313.537,18.649 317.805,17.896 321.989,17.896 C326.257,17.896 330.358,19.57 332.617,21.83 L328.014,30.701 C325.922,28.943 323.997,28.022 320.649,28.022 C315.294,28.022 310.357,30.867 310.357,38.482 L310.357,60.24 L300.148,60.24 L300.148,18.984 L309.604,18.984 Z" id="Path" fill="#112770"></path>
            <path d="M380.646,12.958 C376.378,6.097 369.517,5.093 362.906,5.009 C356.044,5.009 345.166,7.519 345.166,16.892 C345.166,24.34 353.2,26.097 363.074,27.938 C374.371,30.113 386.087,32.122 386.087,44.758 C386.003,57.98 372.697,61.161 362.906,61.161 C353.784,61.161 343.408,57.394 338.889,48.438 L342.906,46.431 C346.504,53.542 355.709,57.058 362.906,57.058 C370.103,57.058 381.567,55.051 381.567,44.673 C381.651,35.887 371.944,33.961 362.32,32.121 C351.609,30.029 340.647,27.853 340.647,17.058 C340.396,4.673 353.283,0.824 362.906,0.824 C371.275,0.824 378.555,2.163 384.329,10.782 L380.646,12.958 Z" id="Path" fill="#FF9933"></path>
            <path d="M398.799,39.653 C398.799,26.516 408.172,18.148 419.804,18.148 C431.435,18.148 440.808,26.516 440.808,39.653 C440.808,52.793 431.435,60.825 419.804,60.825 C408.172,60.825 398.799,52.792 398.799,39.653 Z M436.791,39.653 C436.791,28.943 429.176,21.997 419.804,21.997 C410.431,21.997 402.816,28.942 402.816,39.653 C402.816,50.366 410.431,56.808 419.804,56.808 C429.176,56.808 436.791,50.366 436.791,39.653 Z" id="Shape" fill="#FF9933" fill-rule="nonzero"></path>
            <path d="M458.71,60.24 L458.71,22.833 L450.258,22.833 L450.258,19.235 L458.71,19.235 L458.71,15.553 C458.71,7.352 461.974,1.41 471.095,1.41 C474.191,1.41 476.953,2.498 479.296,4.256 L477.287,7.269 C475.027,5.93 473.438,5.177 470.927,5.177 C465.739,5.177 462.726,8.356 462.726,15.553 L462.726,19.235 L476.366,19.235 L476.366,22.833 L462.726,22.833 L462.726,60.239 L458.71,60.239 L458.71,60.24 Z" id="Path" fill="#FF9933"></path>
            <path d="M499.628,6.432 L499.628,18.901 L513.686,18.901 L513.686,22.332 L499.628,22.332 L499.628,47.52 C499.628,53.127 500.799,57.059 507.243,57.059 C509.251,57.059 511.511,56.391 513.602,55.385 L515.025,58.734 C512.431,59.987 509.837,60.825 507.243,60.825 C498.456,60.825 495.611,55.637 495.611,47.52 L495.611,22.332 L486.824,22.332 L486.824,18.901 L495.611,18.901 L495.611,6.85 L499.628,6.432 Z" id="Path" fill="#FF9933"></path>
        </g>
    </g>
</svg>